.
..............................Site Info...........................

 -   http://www.scenetime.com  *_*    

Scenetime .Always on time . friendly online private torrent community ..

     We care to share . Join us on  http://www.scenetime.com 

    Be the first to get new release at  http://www.scenetime.com

        Seed back for speed


...................................NFO:.................................................General
Unique ID                                : 257425647526819298323343924689059957673 (0xC1AA60555C9E2E4FC281E1C09553CBA9)
Complete name                            : I:UPNicolas Cage Collection part 11984.The.Cotton.Club.DVDRip.XviD.by.Waldek.for.SceneTime1984.The.Cotton.Club.DVDRip.XviD.by.Waldek.for.SceneTime.mkv
Format                                   : Matroska
Format version                           : Version 1
File size                                : 3.07 GiB
Duration                                 : 2h 3mn
Overall bit rate                         : 3 567 Kbps
Encoded date                             : UTC 2012-03-28 04:06:51
Writing application                      : VirtualDubMod 1.5.4.1 (build 2178/release)
Writing library                          : libebml-0.5.1 & libmatroska-0.5.1

Video
ID                                       : 1
Format                                   : MPEG-4 Visual
Format profile                           : Advanced Simple@L5
Format settings, BVOP                    : Yes
Format settings, QPel                    : No
Format settings, GMC                     : No warppoints
Format settings, Matrix                  : Custom
Codec ID                                 : XVID
Codec ID/Hint                            : XviD
Duration                                 : 2h 3mn
Bit rate                                 : 3 048 Kbps
Width                                    : 720 pixels
Height                                   : 432 pixels
Display aspect ratio                     : 1.667
Frame rate                               : 25.000 fps
Color space                              : YUV
Chroma subsampling                       : 4:2:0
Bit depth                                : 8 bits
Scan type                                : Progressive
Compression mode                         : Lossy
Bits/(Pixel*Frame)                       : 0.392
Stream size                              : 2.62 GiB (85%)
Writing library                          : XviD 64
Language                                 : English
Default                                  : Yes
Forced                                   : No

Audio
ID                                       : 2
Format                                   : AC-3
Format/Info                              : Audio Coding 3
Mode extension                           : CM (complete main)
Format settings, Endianness              : Big
Codec ID                                 : 2000
Duration                                 : 2h 3mn
Bit rate mode                            : Constant
Bit rate                                 : 448 Kbps
Channel(s)                               : 2 channels
Channel positions                        : Front: L R
Sampling rate                            : 48.0 KHz
Bit depth                                : 16 bits
Compression mode                         : Lossy
Stream size                              : 395 MiB (13%)
Language                                 : English
Default                                  : Yes
Forced                                   : No